<svg xmlns="http://www.w3.org/2000/svg" style="display:none">
  <symbol id="ic-shield" viewBox="0 0 24 24"><path fill="#0f6848" d="M12 2l8 4v6c0 6-4 10-8 12-4-2-8-6-8-12V6l8-4z"/><text x="12" y="13" text-anchor="middle" font-size="12" fill="#fff">!</text></symbol>
  <symbol id="icon-check" viewBox="0 0 24 24"><path d="M20 6L9 17l-5-5" stroke="#2e7d3d" stroke-width="2" fill="none" stroke-linecap="round" stroke-linejoin="round"/></symbol>
  <symbol id="icon-report" viewBox="0 0 24 24"><path d="M6 2h12l2 4v14H4V6z" stroke="#0f6848" fill="none"/></symbol>
  <symbol id="icon-text" viewBox="0 0 24 24"><path d="M6 4h12M6 8h10M6 12h12M6 16h8" stroke="#0f6848" fill="none"/></symbol>
  <symbol id="icon-log" viewBox="0 0 24 24"><rect x="3" y="3" width="18" height="18" rx="2" stroke="#0f6848" fill="none"/><path d="M8 7h8M8 11h8M8 15h5" stroke="#0f6848"/></symbol>
</svg>
