<svg xmlns="http://www.w3.org/2000/svg" style="display:none">

  <!-- أيقونة فحص الروابط -->
  <symbol id="icon-link-check" viewBox="0 0 24 24">
    <path fill="#00863F" d="M3.9,12c0-1.2,0.5-2.3,1.3-3.2l2.8-2.8c1.8-1.8,4.6-1.8,6.4,0c1.8,1.8,1.8,4.6,0,6.4l-1,1l-1.4-1.4l1-1
      c1-1,1-2.6,0-3.5c-1-1-2.6-1-3.5,0L6.7,10c-1,1-1,2.6,0,3.5c0.5,0.5,1.2,0.8,1.9,0.8h1v2h-1c-1.2,0-2.3-0.5-3.2-1.3
      C4.4,14.3,3.9,13.2,3.9,12z"/>
  </symbol>

  <!-- أيقونة بلاغ -->
  <symbol id="icon-report" viewBox="0 0 24 24">
    <path fill="#00863F" d="M12 2L2 7v6c0 5 3.5 9.7 10 11c6.5-1.3 10-6 10-11V7l-10-5zm1 14h-2v-2h2v2zm0-4h-2V8h2v4z"/>
  </symbol>

  <!-- أيقونة المساعدة -->
  <symbol id="icon-help" viewBox="0 0 24 24">
    <path fill="#00863F" d="M12 2a10 10 0 100 20 10 10 0 000-20zm1 17h-2v-2h2v2zm2.1-7.4l-.9.8C13.5 13 13 14 13 15h-2v-.5c0-1 .5-2 1.4-2.7l1.2-1.1c.4-.3.6-.8.6-1.3a2 2 0 10-4 0H8a4 4 0 118 0c0 1-.4 2-1.1 2.6z"/>
  </symbol>

</svg>
