<svg xmlns="http://www.w3.org/2000/svg" style="display:none">
  <symbol id="ic-shield" viewBox="0 0 24 24">
    <path d="M12 1l7 3v5c0 5-3 9-7 11-4-2-7-6-7-11V4l7-3z" fill="#0f6848"/>
    <text x="12" y="13" text-anchor="middle" font-size="10" fill="#fff">!</text>
  </symbol>

  <symbol id="ic-check" viewBox="0 0 24 24">
    <circle cx="12" cy="12" r="10" fill="#eaf6ee"/>
    <path d="M7 12l3 3 7-7" stroke="#2e8a4c" stroke-width="2" stroke-linecap="round" stroke-linejoin="round" fill="none"/>
  </symbol>

  <symbol id="ic-report" viewBox="0 0 24 24">
    <rect x="3" y="3" width="18" height="18" rx="3" fill="#f6faf6"/>
    <path d="M8 7h8M8 11h8M8 15h6" stroke="#0f6848" stroke-width="1.6" stroke-linecap="round" fill="none"/>
  </symbol>

  <symbol id="ic-text" viewBox="0 0 24 24">
    <path d="M6 4h12M6 8h12M6 12h12" stroke="#0f6848" stroke-width="1.6" stroke-linecap="round"/>
  </symbol>

  <symbol id="icon-calendar" viewBox="0 0 24 24">
    <rect x="3" y="4" width="18" height="18" rx="2" fill="#f6faf6"/>
    <path d="M16 2v4M8 2v4M3 10h18" stroke="#0f6848" stroke-width="1.6"/>
  </symbol>
</svg>
